<svg width="20" height="20" viewBox="0 0 20 20" fill="none" xmlns="http://www.w3.org/2000/svg">
<path d="M18.8 10.2083C18.8 9.55825 18.7417 8.93325 18.6333 8.33325H10V11.8833H14.9333C14.7167 13.0249 14.0667 13.9916 13.0917 14.6416V16.9499H16.0667C17.8 15.3499 18.8 12.9999 18.8 10.2083Z" fill="#4285F4"/>
<path d="M10 19.1667C12.475 19.1667 14.55 18.35 16.0667 16.95L13.0917 14.6417C12.275 15.1917 11.2333 15.525 10 15.525C7.61667 15.525 5.59167 13.9167 4.86667 11.75H1.81667V14.1167C3.325 17.1083 6.41667 19.1667 10 19.1667Z" fill="#34A853"/>
<path d="M4.86667 11.7416C4.68333 11.1916 4.575 10.6083 4.575 9.99993C4.575 9.3916 4.68333 8.80827 4.86667 8.25827V5.8916H1.81667C1.19167 7.12493 0.833333 8.5166 0.833333 9.99993C0.833333 11.4833 1.19167 12.8749 1.81667 14.1083L4.19167 12.2583L4.86667 11.7416Z" fill="#FBBC05"/>
<path d="M10 4.48325C11.35 4.48325 12.55 4.94992 13.5083 5.84992L16.1333 3.22492C14.5417 1.74159 12.475 0.833252 10 0.833252C6.41667 0.833252 3.325 2.89159 1.81667 5.89159L4.86667 8.25825C5.59167 6.09159 7.61667 4.48325 10 4.48325Z" fill="#EA4335"/>
</svg>
